<?xml version="1.0" encoding="utf-8"?>
<!-- Generator: Adobe Illustrator 20.1.0, SVG Export Plug-In . SVG Version: 6.00 Build 0)  -->
<svg version="1.1" id="Layer_1" xmlns="http://www.w3.org/2000/svg" xmlns:xlink="http://www.w3.org/1999/xlink" x="0px" y="0px"
	 viewBox="0 0 131.8 208.2" style="enable-background:new 0 0 131.8 208.2;" xml:space="preserve">
<style type="text/css">
	.st0{fill:#57233A;}
	.st1{fill:#527779;}
	.st2{fill:#F0CF7A;}
	.st3{fill:#DB5844;}
	.st4{fill:#BB2745;}
	.st5{fill:#FFFFFF;}
	.st6{opacity:0.9;}
	.st7{fill:none;stroke:#F0CF7A;stroke-miterlimit:10;}
</style>
<g>
	<g>
		<path class="st5" d="M15.9,184.8c1.3,1.6,1.9,3.7,1.9,6.3v12.2c0,0.4-0.1,0.7-0.4,0.9c-0.2,0.2-0.6,0.4-0.9,0.4
			c-0.4,0-0.7-0.1-0.9-0.4c-0.2-0.2-0.4-0.6-0.4-0.9v-12.2c0-1.9-0.4-3.4-1.3-4.6c-0.9-1.2-2.3-1.8-4.2-1.8c-1.2,0-2.4,0.3-3.4,0.9
			c-1.1,0.6-2,1.3-2.6,2.3c-0.7,1-1,2-1,3.1v12.2c0,0.4-0.1,0.7-0.4,0.9c-0.2,0.2-0.6,0.4-0.9,0.4c-0.4,0-0.7-0.1-0.9-0.4
			C0.1,204,0,203.7,0,203.3v-29.4c0-0.4,0.1-0.7,0.4-0.9c0.2-0.2,0.6-0.4,0.9-0.4c0.4,0,0.7,0.1,0.9,0.4c0.2,0.2,0.4,0.6,0.4,0.9
			v12.7c0.8-1.2,1.9-2.3,3.2-3.1c1.4-0.8,2.8-1.2,4.2-1.2C12.7,182.3,14.6,183.1,15.9,184.8z"/>
		<g>
			<path class="st5" d="M37.6,185.6c-1.2-0.8-2.5-1.2-4-1.2c-1.5,0-2.8,0.4-4,1.2c-1.2,0.8-2.1,1.9-2.8,3.2c-0.7,1.4-1,2.9-1,4.7
				c0,1.7,0.3,3.3,1,4.7c0.7,1.4,1.6,2.5,2.8,3.3c1.2,0.8,2.6,1.2,4.1,1.2c1.5,0,2.8-0.4,4-1.2c1.2-0.8,2.1-1.9,2.8-3.3
				c0.7-1.4,1-3,1-4.7c0-1.7-0.3-3.2-1-4.6C39.7,187.5,38.8,186.4,37.6,185.6z"/>
			<path class="st5" d="M21.9,169.4v38.8h56.5v-38.8H21.9z M43.8,203.3c0,0.4-0.1,0.7-0.4,0.9c-0.2,0.2-0.6,0.4-0.9,0.4
				c-0.4,0-0.7-0.1-0.9-0.4c-0.2-0.2-0.4-0.6-0.4-0.9v-2.9c-0.7,1.3-1.8,2.4-3.2,3.3c-1.4,0.9-3,1.3-4.7,1.3c-1.9,0-3.7-0.5-5.2-1.5
				c-1.5-1-2.8-2.4-3.6-4.2c-0.9-1.8-1.3-3.7-1.3-5.9c0-2.2,0.4-4.2,1.3-5.9c0.9-1.7,2.1-3.1,3.7-4.1c1.5-1,3.3-1.5,5.1-1.5
				c1.7,0,3.3,0.4,4.8,1.3c1.4,0.8,2.5,1.9,3.2,3.3v-2.7c0-0.4,0.1-0.7,0.4-1c0.2-0.3,0.6-0.4,0.9-0.4c0.4,0,0.7,0.1,0.9,0.4
				c0.2,0.3,0.4,0.6,0.4,1V203.3z M62.9,184.3c-0.2,0.2-0.5,0.4-0.8,0.4c-0.1,0-0.4-0.1-0.8-0.2c-0.4-0.1-0.8-0.2-1.2-0.2
				c-1.1,0-2.1,0.4-3.2,1.2c-1.1,0.8-1.9,1.9-2.6,3.2c-0.7,1.3-1,2.6-1,3.9v10.7c0,0.4-0.1,0.7-0.4,0.9c-0.2,0.2-0.6,0.4-0.9,0.4
				c-0.4,0-0.7-0.1-0.9-0.4c-0.2-0.2-0.4-0.6-0.4-0.9v-19.4c0-0.4,0.1-0.7,0.4-0.9c0.2-0.2,0.6-0.4,0.9-0.4c0.4,0,0.7,0.1,0.9,0.4
				c0.2,0.2,0.4,0.6,0.4,0.9v3.8c0.7-1.6,1.7-3,3-4.1c1.3-1.1,2.9-1.6,4.7-1.7c0.6,0,1.1,0.1,1.6,0.3c0.5,0.2,0.7,0.6,0.7,1
				C63.2,183.8,63.1,184.1,62.9,184.3z M76.8,184.7c-0.2,0.2-0.5,0.3-0.9,0.3h-4.3v14.5c0,1.1,0.2,1.8,0.6,2.2
				c0.4,0.4,0.9,0.6,1.6,0.6c0.2,0,0.4,0,0.6-0.1c0.3-0.1,0.5-0.1,0.6-0.1c0.3,0,0.5,0.1,0.7,0.3c0.2,0.2,0.3,0.5,0.3,0.8
				c0,0.4-0.2,0.7-0.7,1c-0.5,0.3-1,0.4-1.6,0.4c-0.8,0-1.5-0.1-2.1-0.2c-0.6-0.1-1.2-0.6-1.8-1.3c-0.6-0.7-0.8-1.9-0.8-3.5V185
				h-3.2c-0.3,0-0.6-0.1-0.9-0.3c-0.2-0.2-0.4-0.5-0.4-0.9s0.1-0.6,0.4-0.9c0.2-0.2,0.5-0.3,0.9-0.3H69v-4.8c0-0.4,0.1-0.7,0.4-0.9
				c0.2-0.2,0.6-0.4,0.9-0.4c0.4,0,0.7,0.1,0.9,0.4c0.2,0.2,0.4,0.6,0.4,0.9v4.8H76c0.3,0,0.6,0.1,0.8,0.4c0.2,0.3,0.4,0.5,0.4,0.9
				C77.2,184.2,77.1,184.5,76.8,184.7z"/>
		</g>
		<path class="st5" d="M81.2,200.1c0-0.4,0.2-0.7,0.6-0.9c0.2-0.2,0.4-0.3,0.7-0.3c0.3,0,0.7,0.1,1,0.4c1.7,2.3,4,3.4,6.8,3.4
			c1.4,0,2.6-0.3,3.6-1c1-0.6,1.5-1.6,1.5-2.8c0-1.2-0.5-2.1-1.4-2.7c-1-0.6-2.3-1.1-4-1.6c-2.4-0.6-4.3-1.4-5.6-2.4
			c-1.4-1-2-2.4-2-4.3c0-1.2,0.3-2.2,1-3.2c0.7-0.9,1.6-1.7,2.7-2.2c1.1-0.5,2.4-0.8,3.9-0.8c1.2,0,2.5,0.2,3.7,0.7
			c1.3,0.5,2.3,1.2,3.2,2.3c0.3,0.2,0.4,0.5,0.4,0.9c0,0.3-0.1,0.6-0.4,0.9c-0.2,0.2-0.5,0.3-0.8,0.3c-0.3,0-0.5-0.1-0.8-0.3
			c-0.7-0.8-1.5-1.4-2.5-1.8c-1-0.4-2-0.6-3.1-0.6c-1.4,0-2.5,0.3-3.5,1c-1,0.6-1.4,1.6-1.4,2.9c0.1,1.2,0.6,2,1.6,2.6
			c1,0.6,2.5,1.2,4.4,1.6c1.5,0.4,2.7,0.8,3.7,1.3c1,0.5,1.8,1.1,2.4,1.9c0.6,0.8,0.9,1.9,0.9,3.3c0,1.9-0.8,3.4-2.3,4.5
			c-1.5,1.1-3.4,1.7-5.6,1.7c-3.5,0-6.3-1.3-8.4-3.9C81.4,200.7,81.2,200.4,81.2,200.1z"/>
		<path class="st5" d="M122.1,199.4c-1,1.8-2.3,3.1-3.9,4.1c-1.7,1-3.5,1.5-5.6,1.5c-2,0-3.9-0.5-5.6-1.5c-1.7-1-3-2.4-3.9-4.1
			c-1-1.8-1.4-3.7-1.4-5.9c0-2.2,0.5-4.1,1.4-5.9c1-1.8,2.3-3.1,3.9-4.2c1.7-1,3.5-1.5,5.6-1.5c2,0,3.9,0.5,5.6,1.5
			c1.7,1,3,2.4,3.9,4.2c1,1.8,1.4,3.7,1.4,5.9C123.6,195.7,123.1,197.7,122.1,199.4z M119.9,188.8c-0.7-1.4-1.7-2.5-3-3.3
			c-1.3-0.8-2.7-1.2-4.3-1.2c-1.6,0-3,0.4-4.2,1.2c-1.3,0.8-2.3,1.9-3,3.3c-0.7,1.4-1.1,2.9-1.1,4.7c0,1.7,0.4,3.2,1.1,4.6
			c0.7,1.4,1.7,2.5,3,3.3c1.3,0.8,2.7,1.2,4.2,1.2c1.6,0,3-0.4,4.3-1.2c1.3-0.8,2.3-1.9,3-3.2c0.7-1.4,1.1-2.9,1.1-4.7
			C121,191.8,120.6,190.2,119.9,188.8z"/>
		<path class="st5" d="M131.4,204.2c-0.2,0.2-0.6,0.4-0.9,0.4c-0.4,0-0.7-0.1-0.9-0.4c-0.2-0.2-0.4-0.6-0.4-0.9v-29.4
			c0-0.4,0.1-0.7,0.4-0.9c0.2-0.2,0.6-0.4,0.9-0.4c0.4,0,0.7,0.1,0.9,0.4c0.2,0.2,0.4,0.6,0.4,0.9v29.4
			C131.8,203.7,131.6,204,131.4,204.2z"/>
	</g>
	<g>
		<path class="st5" d="M127.7,3.9c2.6,2.6,3.9,6,3.9,10.2v133.5c0,4-1.4,7.4-4.2,10c-2.8,2.7-6.3,4-10.6,4c-3.9,0-7.2-1.3-9.9-4
			c-2.8-2.7-4.2-6-4.2-10V93.8H29v53.8c0,4-1.5,7.4-4.4,10c-2.9,2.7-6.3,4-10.2,4c-4.2,0-7.6-1.3-10.3-4c-2.7-2.7-4-6-4-10V14.1
			c0-4,1.4-7.4,4.2-10c2.8-2.7,6.3-4,10.6-4c3.8,0,7.2,1.3,9.9,4c2.8,2.7,4.2,6,4.2,10v53.1h73.7V14.1c0-4,1.5-7.4,4.4-10
			c2.9-2.7,6.3-4,10.2-4C121.6,0,125,1.3,127.7,3.9z"/>
	</g>
</g>
</svg>
